<?xml version="1.0" encoding="utf-8" standalone="no"?>
<!DOCTYPE svg PUBLIC "-//W3C//DTD SVG 1.1//EN"
  "http://www.w3.org/Graphics/SVG/1.1/DTD/svg11.dtd">
<svg height="345.6pt" version="1.1" viewBox="0 0 460.8 345.6" width="460.8pt" xmlns="http://www.w3.org/2000/svg" xmlns:xlink="http://www.w3.org/1999/xlink">
 <metadata>
  <rdf:RDF xmlns:cc="http://creativecommons.org/ns#" xmlns:dc="http://purl.org/dc/elements/1.1/" xmlns:rdf="http://www.w3.org/1999/02/22-rdf-syntax-ns#">
   <cc:Work>
    <dc:type rdf:resource="http://purl.org/dc/dcmitype/StillImage"/>
    <dc:date>2022-11-19T11:39:59.949724</dc:date>
    <dc:format>image/svg+xml</dc:format>
    <dc:creator>
     <cc:Agent>
      <dc:title>Matplotlib v3.4.3, https://matplotlib.org/</dc:title>
     </cc:Agent>
    </dc:creator>
   </cc:Work>
  </rdf:RDF>
 </metadata>
 <defs>
  <style type="text/css">*{stroke-linecap:butt;stroke-linejoin:round;}</style>
 </defs>
 <g id="figure_1">
  <g id="patch_1">
   <path d="M 0 345.6 
L 460.8 345.6 
L 460.8 0 
L 0 0 
z
" style="fill:#ffffff;"/>
  </g>
  <g id="axes_1">
   <g id="patch_2">
    <path d="M 57.6 162.432 
L 414.72 162.432 
L 414.72 41.472 
L 57.6 41.472 
z
" style="fill:#ffffff;"/>
   </g>
   <g id="matplotlib.axis_1">
    <g id="xtick_1">
     <g id="line2d_1">
      <defs>
       <path d="M 0 0 
L 0 3.5 
" id="mb88277fd6a" style="stroke:#000000;stroke-width:0.8;"/>
      </defs>
      <g>
       <use style="stroke:#000000;stroke-width:0.8;" x="73.832727" xlink:href="#mb88277fd6a" y="162.432"/>
      </g>
     </g>
    </g>
    <g id="xtick_2">
     <g id="line2d_2">
      <g>
       <use style="stroke:#000000;stroke-width:0.8;" x="125.504627" xlink:href="#mb88277fd6a" y="162.432"/>
      </g>
     </g>
    </g>
    <g id="xtick_3">
     <g id="line2d_3">
      <g>
       <use style="stroke:#000000;stroke-width:0.8;" x="177.176527" xlink:href="#mb88277fd6a" y="162.432"/>
      </g>
     </g>
    </g>
    <g id="xtick_4">
     <g id="line2d_4">
      <g>
       <use style="stroke:#000000;stroke-width:0.8;" x="228.848426" xlink:href="#mb88277fd6a" y="162.432"/>
      </g>
     </g>
    </g>
    <g id="xtick_5">
     <g id="line2d_5">
      <g>
       <use style="stroke:#000000;stroke-width:0.8;" x="280.520326" xlink:href="#mb88277fd6a" y="162.432"/>
      </g>
     </g>
    </g>
    <g id="xtick_6">
     <g id="line2d_6">
      <g>
       <use style="stroke:#000000;stroke-width:0.8;" x="332.192226" xlink:href="#mb88277fd6a" y="162.432"/>
      </g>
     </g>
    </g>
    <g id="xtick_7">
     <g id="line2d_7">
      <g>
       <use style="stroke:#000000;stroke-width:0.8;" x="383.864126" xlink:href="#mb88277fd6a" y="162.432"/>
      </g>
     </g>
    </g>
   </g>
   <g id="matplotlib.axis_2">
    <g id="ytick_1">
     <g id="line2d_8">
      <defs>
       <path d="M 0 0 
L -3.5 0 
" id="m6a8ec1dfe5" style="stroke:#000000;stroke-width:0.8;"/>
      </defs>
      <g>
       <use style="stroke:#000000;stroke-width:0.8;" x="57.6" xlink:href="#m6a8ec1dfe5" y="133.609051"/>
      </g>
     </g>
     <g id="text_1">
      <!-- −0.5 -->
      <g transform="translate(26.317187 137.40827)scale(0.1 -0.1)">
       <defs>
        <path d="M 678 2272 
L 4684 2272 
L 4684 1741 
L 678 1741 
L 678 2272 
z
" id="DejaVuSans-2212" transform="scale(0.015625)"/>
        <path d="M 2034 4250 
Q 1547 4250 1301 3770 
Q 1056 3291 1056 2328 
Q 1056 1369 1301 889 
Q 1547 409 2034 409 
Q 2525 409 2770 889 
Q 3016 1369 3016 2328 
Q 3016 3291 2770 3770 
Q 2525 4250 2034 4250 
z
M 2034 4750 
Q 2819 4750 3233 4129 
Q 3647 3509 3647 2328 
Q 3647 1150 3233 529 
Q 2819 -91 2034 -91 
Q 1250 -91 836 529 
Q 422 1150 422 2328 
Q 422 3509 836 4129 
Q 1250 4750 2034 4750 
z
" id="DejaVuSans-30" transform="scale(0.015625)"/>
        <path d="M 684 794 
L 1344 794 
L 1344 0 
L 684 0 
L 684 794 
z
" id="DejaVuSans-2e" transform="scale(0.015625)"/>
        <path d="M 691 4666 
L 3169 4666 
L 3169 4134 
L 1269 4134 
L 1269 2991 
Q 1406 3038 1543 3061 
Q 1681 3084 1819 3084 
Q 2600 3084 3056 2656 
Q 3513 2228 3513 1497 
Q 3513 744 3044 326 
Q 2575 -91 1722 -91 
Q 1428 -91 1123 -41 
Q 819 9 494 109 
L 494 744 
Q 775 591 1075 516 
Q 1375 441 1709 441 
Q 2250 441 2565 725 
Q 2881 1009 2881 1497 
Q 2881 1984 2565 2268 
Q 2250 2553 1709 2553 
Q 1456 2553 1204 2497 
Q 953 2441 691 2322 
L 691 4666 
z
" id="DejaVuSans-35" transform="scale(0.015625)"/>
       </defs>
       <use xlink:href="#DejaVuSans-2212"/>
       <use x="83.789062" xlink:href="#DejaVuSans-30"/>
       <use x="147.412109" xlink:href="#DejaVuSans-2e"/>
       <use x="179.199219" xlink:href="#DejaVuSans-35"/>
      </g>
     </g>
    </g>
    <g id="ytick_2">
     <g id="line2d_9">
      <g>
       <use style="stroke:#000000;stroke-width:0.8;" x="57.6" xlink:href="#m6a8ec1dfe5" y="101.810034"/>
      </g>
     </g>
     <g id="text_2">
      <!-- 0.0 -->
      <g transform="translate(34.696875 105.609253)scale(0.1 -0.1)">
       <use xlink:href="#DejaVuSans-30"/>
       <use x="63.623047" xlink:href="#DejaVuSans-2e"/>
       <use x="95.410156" xlink:href="#DejaVuSans-30"/>
      </g>
     </g>
    </g>
    <g id="ytick_3">
     <g id="line2d_10">
      <g>
       <use style="stroke:#000000;stroke-width:0.8;" x="57.6" xlink:href="#m6a8ec1dfe5" y="70.011017"/>
      </g>
     </g>
     <g id="text_3">
      <!-- 0.5 -->
      <g transform="translate(34.696875 73.810236)scale(0.1 -0.1)">
       <use xlink:href="#DejaVuSans-30"/>
       <use x="63.623047" xlink:href="#DejaVuSans-2e"/>
       <use x="95.410156" xlink:href="#DejaVuSans-35"/>
      </g>
     </g>
    </g>
    <g id="text_4">
     <!-- θ(t) -->
     <g transform="translate(20.2375 110.873094)rotate(-90)scale(0.1 -0.1)">
      <defs>
       <path d="M 2953 2219 
L 963 2219 
Q 1009 1284 1225 888 
Q 1494 400 1959 400 
Q 2428 400 2688 891 
Q 2916 1322 2953 2219 
z
M 2944 2750 
Q 2856 3638 2688 3950 
Q 2419 4444 1959 4444 
Q 1481 4444 1228 3956 
Q 1028 3563 969 2750 
L 2944 2750 
z
M 1959 4913 
Q 2709 4913 3138 4250 
Q 3566 3591 3566 2422 
Q 3566 1256 3138 594 
Q 2709 -72 1959 -72 
Q 1206 -72 781 594 
Q 353 1256 353 2422 
Q 353 3591 781 4250 
Q 1206 4913 1959 4913 
z
" id="DejaVuSans-3b8" transform="scale(0.015625)"/>
       <path d="M 1984 4856 
Q 1566 4138 1362 3434 
Q 1159 2731 1159 2009 
Q 1159 1288 1364 580 
Q 1569 -128 1984 -844 
L 1484 -844 
Q 1016 -109 783 600 
Q 550 1309 550 2009 
Q 550 2706 781 3412 
Q 1013 4119 1484 4856 
L 1984 4856 
z
" id="DejaVuSans-28" transform="scale(0.015625)"/>
       <path d="M 1172 4494 
L 1172 3500 
L 2356 3500 
L 2356 3053 
L 1172 3053 
L 1172 1153 
Q 1172 725 1289 603 
Q 1406 481 1766 481 
L 2356 481 
L 2356 0 
L 1766 0 
Q 1100 0 847 248 
Q 594 497 594 1153 
L 594 3053 
L 172 3053 
L 172 3500 
L 594 3500 
L 594 4494 
L 1172 4494 
z
" id="DejaVuSans-74" transform="scale(0.015625)"/>
       <path d="M 513 4856 
L 1013 4856 
Q 1481 4119 1714 3412 
Q 1947 2706 1947 2009 
Q 1947 1309 1714 600 
Q 1481 -109 1013 -844 
L 513 -844 
Q 928 -128 1133 580 
Q 1338 1288 1338 2009 
Q 1338 2731 1133 3434 
Q 928 4138 513 4856 
z
" id="DejaVuSans-29" transform="scale(0.015625)"/>
      </defs>
      <use xlink:href="#DejaVuSans-3b8"/>
      <use x="61.181641" xlink:href="#DejaVuSans-28"/>
      <use x="100.195312" xlink:href="#DejaVuSans-74"/>
      <use x="139.404297" xlink:href="#DejaVuSans-29"/>
     </g>
    </g>
   </g>
   <g id="line2d_11">
    <path clip-path="url(#p24b09aa7a2)" d="M 73.832727 141.572893 
L 76.467994 137.749451 
L 79.335785 133.187687 
L 82.513606 127.702136 
L 86.13064 121.000205 
L 90.600258 112.222479 
L 99.07445 94.952919 
L 104.706689 83.765192 
L 108.685423 76.340351 
L 112.069934 70.479986 
L 115.092739 65.678987 
L 117.857186 61.696562 
L 120.414944 58.393187 
L 122.817689 55.647508 
L 125.065414 53.408981 
L 127.209799 51.582494 
L 129.250839 50.132805 
L 131.188537 49.022992 
L 133.074566 48.196183 
L 134.908909 47.634681 
L 136.691589 47.320067 
L 138.448442 47.233833 
L 140.205283 47.370051 
L 141.962129 47.728308 
L 143.74481 48.317672 
L 145.579159 49.159629 
L 147.465188 50.271384 
L 149.42872 51.689572 
L 151.495594 53.463534 
L 153.665816 55.627743 
L 155.939381 58.214207 
L 158.367957 61.32075 
L 160.97739 65.029993 
L 163.793508 69.429479 
L 166.893819 74.696415 
L 170.407512 81.118703 
L 174.644602 89.351234 
L 181.026088 102.304208 
L 188.725197 117.819822 
L 192.936447 125.798531 
L 196.424306 131.945069 
L 199.524617 136.968436 
L 202.340741 141.116681 
L 204.924334 144.538624 
L 207.352922 147.395076 
L 209.626481 149.73517 
L 211.796703 151.654885 
L 213.863577 153.188927 
L 215.827103 154.373957 
L 217.713126 155.257933 
L 219.547481 155.875608 
L 221.330168 156.245162 
L 223.087008 156.385706 
L 224.843861 156.3038 
L 226.600702 155.999693 
L 228.383376 155.46494 
L 230.217731 154.678632 
L 232.103754 153.623322 
L 234.06728 152.262828 
L 236.108332 150.571309 
L 238.25272 148.497801 
L 240.500433 146.009687 
L 242.903187 143.009689 
L 245.460933 139.452253 
L 248.225389 135.217591 
L 251.248185 130.171409 
L 254.658542 124.031587 
L 258.688942 116.295783 
L 264.217841 105.155825 
L 274.138841 85.12596 
L 278.272601 77.331781 
L 281.734614 71.265841 
L 284.809079 66.31756 
L 287.599381 62.237406 
L 290.182961 58.843837 
L 292.585715 56.043907 
L 294.859286 53.727846 
L 297.00365 51.852653 
L 299.044702 50.355353 
L 301.00824 49.185816 
L 302.894263 48.316951 
L 304.728618 47.714128 
L 306.51128 47.359109 
L 308.268121 47.232931 
L 310.024961 47.329206 
L 311.781826 47.647649 
L 313.564513 48.196865 
L 315.398844 48.997901 
L 317.284891 50.068177 
L 319.248429 51.443972 
L 321.289457 53.150991 
L 323.433845 55.240306 
L 325.707417 57.774963 
L 328.110146 60.794752 
L 330.693726 64.40983 
L 333.484028 68.709075 
L 336.532671 73.825892 
L 339.968837 80.041053 
L 344.050942 87.905258 
L 349.786526 99.489078 
L 359.00992 118.111502 
L 363.169539 125.977321 
L 366.657373 132.110338 
L 369.731863 137.079658 
L 372.522165 141.181199 
L 375.105745 144.596281 
L 377.534321 147.445873 
L 379.807892 149.779264 
L 381.952256 151.671388 
L 383.993308 153.18524 
L 385.956846 154.371025 
L 387.842869 155.255731 
L 389.677224 155.874122 
L 391.459886 156.244373 
L 393.216727 156.385613 
L 394.973567 156.304405 
L 396.730432 156.000988 
L 398.487273 155.476293 
L 398.487273 155.476293 
" style="fill:none;stroke:#000000;stroke-linecap:square;stroke-width:1.5;"/>
   </g>
   <g id="line2d_12">
    <path clip-path="url(#p24b09aa7a2)" d="M 73.832727 141.572893 
L 76.49383 137.715717 
L 79.387457 133.12043 
L 82.591114 127.605329 
L 86.259819 120.83325 
L 90.806946 111.945038 
L 100.314578 92.698988 
L 105.533438 82.476401 
L 109.434667 75.307443 
L 112.767503 69.63275 
L 115.764475 64.958567 
L 118.503087 61.090818 
L 121.035008 57.890807 
L 123.411913 55.238605 
L 125.63381 53.083956 
L 127.752352 51.333532 
L 129.767564 49.952453 
L 131.705255 48.891782 
L 133.565444 48.124391 
L 135.373959 47.616849 
L 137.130806 47.350811 
L 138.887652 47.309417 
L 140.644499 47.492775 
L 142.401339 47.900183 
L 144.209854 48.551995 
L 146.044209 49.451362 
L 147.956072 50.640133 
L 149.945438 52.143863 
L 152.038146 54.011387 
L 154.234203 56.275154 
L 156.559442 58.996409 
L 159.039692 62.246056 
L 161.726634 66.14145 
L 164.646094 70.774266 
L 167.901422 76.369523 
L 171.647634 83.269243 
L 176.272272 92.27969 
L 193.168979 125.668052 
L 196.786008 132.053754 
L 199.938 137.180205 
L 202.779958 141.390003 
L 205.389384 144.868604 
L 207.81796 147.743641 
L 210.091519 150.097165 
L 212.23592 152.002185 
L 214.251113 153.503127 
L 216.188817 154.674326 
L 218.049006 155.542395 
L 219.857515 156.142008 
L 221.614355 156.491541 
L 223.345361 156.610218 
L 225.07638 156.504607 
L 226.807386 156.17535 
L 228.564239 155.614041 
L 230.372748 154.799801 
L 232.232925 153.715878 
L 234.170628 152.326414 
L 236.21168 150.582999 
L 238.356057 148.452246 
L 240.629616 145.872323 
L 243.058204 142.770839 
L 245.667618 139.066975 
L 248.483754 134.674909 
L 251.609899 129.373761 
L 255.149414 122.915879 
L 259.386523 114.698631 
L 265.638813 102.025471 
L 273.777139 85.614114 
L 278.014236 77.583331 
L 281.527917 71.387011 
L 284.628252 66.358376 
L 287.444352 62.203603 
L 290.053803 58.742627 
L 292.482379 55.884167 
L 294.755925 53.543707 
L 296.900314 51.646856 
L 298.941366 50.131116 
L 300.904904 48.946571 
L 302.790902 48.066418 
L 304.599435 47.462884 
L 306.382122 47.100605 
L 308.138963 46.970806 
L 309.869957 47.063955 
L 311.626797 47.382458 
L 313.409509 47.93506 
L 315.218017 48.729616 
L 317.104041 49.805846 
L 319.067554 51.189944 
L 321.108606 52.906857 
L 323.25297 55.006528 
L 325.526541 57.55057 
L 327.955117 60.610977 
L 330.564568 64.26825 
L 333.380667 68.607605 
L 336.480978 73.803359 
L 339.994659 80.140675 
L 344.1801 88.171026 
L 350.044867 99.95475 
L 359.552497 119.054533 
L 363.789581 127.032946 
L 367.303287 133.189532 
L 370.403598 138.183953 
L 373.193875 142.269584 
L 375.77748 145.666626 
L 378.18021 148.464414 
L 380.427959 150.746192 
L 382.546501 152.585458 
L 384.561707 154.044304 
L 386.473552 155.159095 
L 388.307907 155.977314 
L 390.090594 156.53328 
L 391.847434 156.848423 
L 393.578453 156.93192 
L 395.309447 156.789994 
L 397.040441 156.423437 
L 398.487273 155.94588 
L 398.487273 155.94588 
" style="fill:none;stroke:#0000ff;stroke-dasharray:5.55,2.4;stroke-dashoffset:0;stroke-width:1.5;"/>
   </g>
   <g id="patch_3">
    <path d="M 57.6 162.432 
L 57.6 41.472 
" style="fill:none;stroke:#000000;stroke-linecap:square;stroke-linejoin:miter;stroke-width:0.8;"/>
   </g>
   <g id="patch_4">
    <path d="M 414.72 162.432 
L 414.72 41.472 
" style="fill:none;stroke:#000000;stroke-linecap:square;stroke-linejoin:miter;stroke-width:0.8;"/>
   </g>
   <g id="patch_5">
    <path d="M 57.6 162.432 
L 414.72 162.432 
" style="fill:none;stroke:#000000;stroke-linecap:square;stroke-linejoin:miter;stroke-width:0.8;"/>
   </g>
   <g id="patch_6">
    <path d="M 57.6 41.472 
L 414.72 41.472 
" style="fill:none;stroke:#000000;stroke-linecap:square;stroke-linejoin:miter;stroke-width:0.8;"/>
   </g>
  </g>
  <g id="axes_2">
   <g id="patch_7">
    <path d="M 57.6 307.584 
L 414.72 307.584 
L 414.72 186.624 
L 57.6 186.624 
z
" style="fill:#ffffff;"/>
   </g>
   <g id="matplotlib.axis_3">
    <g id="xtick_8">
     <g id="line2d_13">
      <g>
       <use style="stroke:#000000;stroke-width:0.8;" x="73.832727" xlink:href="#mb88277fd6a" y="307.584"/>
      </g>
     </g>
     <g id="text_5">
      <!-- 0 -->
      <g transform="translate(70.651477 322.182437)scale(0.1 -0.1)">
       <use xlink:href="#DejaVuSans-30"/>
      </g>
     </g>
    </g>
    <g id="xtick_9">
     <g id="line2d_14">
      <g>
       <use style="stroke:#000000;stroke-width:0.8;" x="125.504627" xlink:href="#mb88277fd6a" y="307.584"/>
      </g>
     </g>
     <g id="text_6">
      <!-- 2 -->
      <g transform="translate(122.323377 322.182437)scale(0.1 -0.1)">
       <defs>
        <path d="M 1228 531 
L 3431 531 
L 3431 0 
L 469 0 
L 469 531 
Q 828 903 1448 1529 
Q 2069 2156 2228 2338 
Q 2531 2678 2651 2914 
Q 2772 3150 2772 3378 
Q 2772 3750 2511 3984 
Q 2250 4219 1831 4219 
Q 1534 4219 1204 4116 
Q 875 4013 500 3803 
L 500 4441 
Q 881 4594 1212 4672 
Q 1544 4750 1819 4750 
Q 2544 4750 2975 4387 
Q 3406 4025 3406 3419 
Q 3406 3131 3298 2873 
Q 3191 2616 2906 2266 
Q 2828 2175 2409 1742 
Q 1991 1309 1228 531 
z
" id="DejaVuSans-32" transform="scale(0.015625)"/>
       </defs>
       <use xlink:href="#DejaVuSans-32"/>
      </g>
     </g>
    </g>
    <g id="xtick_10">
     <g id="line2d_15">
      <g>
       <use style="stroke:#000000;stroke-width:0.8;" x="177.176527" xlink:href="#mb88277fd6a" y="307.584"/>
      </g>
     </g>
     <g id="text_7">
      <!-- 4 -->
      <g transform="translate(173.995277 322.182437)scale(0.1 -0.1)">
       <defs>
        <path d="M 2419 4116 
L 825 1625 
L 2419 1625 
L 2419 4116 
z
M 2253 4666 
L 3047 4666 
L 3047 1625 
L 3713 1625 
L 3713 1100 
L 3047 1100 
L 3047 0 
L 2419 0 
L 2419 1100 
L 313 1100 
L 313 1709 
L 2253 4666 
z
" id="DejaVuSans-34" transform="scale(0.015625)"/>
       </defs>
       <use xlink:href="#DejaVuSans-34"/>
      </g>
     </g>
    </g>
    <g id="xtick_11">
     <g id="line2d_16">
      <g>
       <use style="stroke:#000000;stroke-width:0.8;" x="228.848426" xlink:href="#mb88277fd6a" y="307.584"/>
      </g>
     </g>
     <g id="text_8">
      <!-- 6 -->
      <g transform="translate(225.667176 322.182437)scale(0.1 -0.1)">
       <defs>
        <path d="M 2113 2584 
Q 1688 2584 1439 2293 
Q 1191 2003 1191 1497 
Q 1191 994 1439 701 
Q 1688 409 2113 409 
Q 2538 409 2786 701 
Q 3034 994 3034 1497 
Q 3034 2003 2786 2293 
Q 2538 2584 2113 2584 
z
M 3366 4563 
L 3366 3988 
Q 3128 4100 2886 4159 
Q 2644 4219 2406 4219 
Q 1781 4219 1451 3797 
Q 1122 3375 1075 2522 
Q 1259 2794 1537 2939 
Q 1816 3084 2150 3084 
Q 2853 3084 3261 2657 
Q 3669 2231 3669 1497 
Q 3669 778 3244 343 
Q 2819 -91 2113 -91 
Q 1303 -91 875 529 
Q 447 1150 447 2328 
Q 447 3434 972 4092 
Q 1497 4750 2381 4750 
Q 2619 4750 2861 4703 
Q 3103 4656 3366 4563 
z
" id="DejaVuSans-36" transform="scale(0.015625)"/>
       </defs>
       <use xlink:href="#DejaVuSans-36"/>
      </g>
     </g>
    </g>
    <g id="xtick_12">
     <g id="line2d_17">
      <g>
       <use style="stroke:#000000;stroke-width:0.8;" x="280.520326" xlink:href="#mb88277fd6a" y="307.584"/>
      </g>
     </g>
     <g id="text_9">
      <!-- 8 -->
      <g transform="translate(277.339076 322.182437)scale(0.1 -0.1)">
       <defs>
        <path d="M 2034 2216 
Q 1584 2216 1326 1975 
Q 1069 1734 1069 1313 
Q 1069 891 1326 650 
Q 1584 409 2034 409 
Q 2484 409 2743 651 
Q 3003 894 3003 1313 
Q 3003 1734 2745 1975 
Q 2488 2216 2034 2216 
z
M 1403 2484 
Q 997 2584 770 2862 
Q 544 3141 544 3541 
Q 544 4100 942 4425 
Q 1341 4750 2034 4750 
Q 2731 4750 3128 4425 
Q 3525 4100 3525 3541 
Q 3525 3141 3298 2862 
Q 3072 2584 2669 2484 
Q 3125 2378 3379 2068 
Q 3634 1759 3634 1313 
Q 3634 634 3220 271 
Q 2806 -91 2034 -91 
Q 1263 -91 848 271 
Q 434 634 434 1313 
Q 434 1759 690 2068 
Q 947 2378 1403 2484 
z
M 1172 3481 
Q 1172 3119 1398 2916 
Q 1625 2713 2034 2713 
Q 2441 2713 2670 2916 
Q 2900 3119 2900 3481 
Q 2900 3844 2670 4047 
Q 2441 4250 2034 4250 
Q 1625 4250 1398 4047 
Q 1172 3844 1172 3481 
z
" id="DejaVuSans-38" transform="scale(0.015625)"/>
       </defs>
       <use xlink:href="#DejaVuSans-38"/>
      </g>
     </g>
    </g>
    <g id="xtick_13">
     <g id="line2d_18">
      <g>
       <use style="stroke:#000000;stroke-width:0.8;" x="332.192226" xlink:href="#mb88277fd6a" y="307.584"/>
      </g>
     </g>
     <g id="text_10">
      <!-- 10 -->
      <g transform="translate(325.829726 322.182437)scale(0.1 -0.1)">
       <defs>
        <path d="M 794 531 
L 1825 531 
L 1825 4091 
L 703 3866 
L 703 4441 
L 1819 4666 
L 2450 4666 
L 2450 531 
L 3481 531 
L 3481 0 
L 794 0 
L 794 531 
z
" id="DejaVuSans-31" transform="scale(0.015625)"/>
       </defs>
       <use xlink:href="#DejaVuSans-31"/>
       <use x="63.623047" xlink:href="#DejaVuSans-30"/>
      </g>
     </g>
    </g>
    <g id="xtick_14">
     <g id="line2d_19">
      <g>
       <use style="stroke:#000000;stroke-width:0.8;" x="383.864126" xlink:href="#mb88277fd6a" y="307.584"/>
      </g>
     </g>
     <g id="text_11">
      <!-- 12 -->
      <g transform="translate(377.501626 322.182437)scale(0.1 -0.1)">
       <use xlink:href="#DejaVuSans-31"/>
       <use x="63.623047" xlink:href="#DejaVuSans-32"/>
      </g>
     </g>
    </g>
    <g id="text_12">
     <!-- t -->
     <g transform="translate(234.199844 335.860562)scale(0.1 -0.1)">
      <use xlink:href="#DejaVuSans-74"/>
     </g>
    </g>
   </g>
   <g id="matplotlib.axis_4">
    <g id="ytick_4">
     <g id="line2d_20">
      <g>
       <use style="stroke:#000000;stroke-width:0.8;" x="57.6" xlink:href="#m6a8ec1dfe5" y="280.143048"/>
      </g>
     </g>
     <g id="text_13">
      <!-- −0.5 -->
      <g transform="translate(26.317187 283.942267)scale(0.1 -0.1)">
       <use xlink:href="#DejaVuSans-2212"/>
       <use x="83.789062" xlink:href="#DejaVuSans-30"/>
       <use x="147.412109" xlink:href="#DejaVuSans-2e"/>
       <use x="179.199219" xlink:href="#DejaVuSans-35"/>
      </g>
     </g>
    </g>
    <g id="ytick_5">
     <g id="line2d_21">
      <g>
       <use style="stroke:#000000;stroke-width:0.8;" x="57.6" xlink:href="#m6a8ec1dfe5" y="247.104"/>
      </g>
     </g>
     <g id="text_14">
      <!-- 0.0 -->
      <g transform="translate(34.696875 250.903219)scale(0.1 -0.1)">
       <use xlink:href="#DejaVuSans-30"/>
       <use x="63.623047" xlink:href="#DejaVuSans-2e"/>
       <use x="95.410156" xlink:href="#DejaVuSans-30"/>
      </g>
     </g>
    </g>
    <g id="ytick_6">
     <g id="line2d_22">
      <g>
       <use style="stroke:#000000;stroke-width:0.8;" x="57.6" xlink:href="#m6a8ec1dfe5" y="214.064952"/>
      </g>
     </g>
     <g id="text_15">
      <!-- 0.5 -->
      <g transform="translate(34.696875 217.864171)scale(0.1 -0.1)">
       <use xlink:href="#DejaVuSans-30"/>
       <use x="63.623047" xlink:href="#DejaVuSans-2e"/>
       <use x="95.410156" xlink:href="#DejaVuSans-35"/>
      </g>
     </g>
    </g>
    <g id="text_16">
     <!-- ω(t) -->
     <g transform="translate(20.2375 257.152437)rotate(-90)scale(0.1 -0.1)">
      <defs>
       <path d="M 1719 -91 
Q 422 -91 422 1766 
Q 422 2500 906 3500 
L 1525 3500 
Q 1078 2500 1078 1750 
Q 1078 397 1772 397 
Q 2406 397 2406 2078 
L 2938 2078 
Q 2938 397 3572 397 
Q 4266 397 4266 1750 
Q 4266 2500 3819 3500 
L 4438 3500 
Q 4922 2500 4922 1766 
Q 4922 -91 3625 -91 
Q 2775 -91 2672 844 
Q 2544 -91 1719 -91 
z
" id="DejaVuSans-3c9" transform="scale(0.015625)"/>
      </defs>
      <use xlink:href="#DejaVuSans-3c9"/>
      <use x="83.740234" xlink:href="#DejaVuSans-28"/>
      <use x="122.753906" xlink:href="#DejaVuSans-74"/>
      <use x="161.962891" xlink:href="#DejaVuSans-29"/>
     </g>
    </g>
   </g>
   <g id="line2d_23">
    <path clip-path="url(#pf177800d0e)" d="M 73.832727 210.075911 
L 76.726354 205.942932 
L 79.335785 202.589462 
L 81.738528 199.854127 
L 83.960419 197.654553 
L 86.027296 195.914399 
L 87.964993 194.566347 
L 89.799344 193.553957 
L 91.556189 192.832667 
L 93.261361 192.370261 
L 94.914862 192.148691 
L 96.568363 192.152014 
L 98.221864 192.380207 
L 99.901202 192.840507 
L 101.606375 193.540206 
L 103.389055 194.516549 
L 105.249241 195.794118 
L 107.212773 197.417945 
L 109.305487 199.443944 
L 111.553212 201.937609 
L 113.981794 204.971934 
L 116.642898 208.66174 
L 119.588195 213.134989 
L 122.921031 218.612136 
L 126.822263 225.467464 
L 131.679421 234.476916 
L 139.662724 249.835049 
L 147.542696 264.828643 
L 152.193163 273.205567 
L 155.939381 279.513513 
L 159.168869 284.532427 
L 162.036661 288.592664 
L 164.646094 291.910781 
L 167.022995 294.582941 
L 169.219052 296.726937 
L 171.260092 298.419407 
L 173.197789 299.743475 
L 175.032144 300.732316 
L 176.788985 301.430438 
L 178.494151 301.869953 
L 180.147655 302.0691 
L 181.801159 302.043286 
L 183.454651 301.792692 
L 185.134002 301.309883 
L 186.865008 300.575033 
L 188.647695 299.572273 
L 190.507884 298.268109 
L 192.471409 296.617494 
L 194.564117 294.56459 
L 196.837689 292.013322 
L 199.292098 288.914717 
L 201.97904 285.154485 
L 204.976014 280.564628 
L 208.360512 274.961139 
L 212.339256 267.925924 
L 217.351424 258.584213 
L 226.755718 240.465398 
L 233.395557 227.93113 
L 237.865172 219.954317 
L 241.53387 213.846697 
L 244.711696 208.975203 
L 247.527807 205.051126 
L 250.085578 201.856225 
L 252.436651 199.265858 
L 254.606874 197.195944 
L 256.647914 195.550436 
L 258.559771 194.288256 
L 260.368292 193.353046 
L 262.125133 192.692682 
L 263.804471 192.294764 
L 265.457963 192.12859 
L 267.111467 192.187446 
L 268.764971 192.470927 
L 270.444297 192.986734 
L 272.175315 193.754958 
L 273.95799 194.791139 
L 275.844013 196.1493 
L 277.833385 197.861366 
L 279.951927 199.983066 
L 282.251345 202.610663 
L 284.731589 205.791786 
L 287.470198 209.678282 
L 290.518841 214.405241 
L 293.980878 220.198212 
L 298.062933 227.479258 
L 303.307633 237.317462 
L 320.850265 270.59928 
L 324.854806 277.511326 
L 328.239329 282.926165 
L 331.236303 287.312989 
L 333.923244 290.862126 
L 336.377642 293.744315 
L 338.625392 296.051445 
L 340.718087 297.890988 
L 342.6816 299.329879 
L 344.541802 300.424577 
L 346.324489 301.219887 
L 348.029661 301.742353 
L 349.708987 302.025434 
L 351.362491 302.077756 
L 353.015995 301.905058 
L 354.669499 301.508532 
L 356.374672 300.868078 
L 358.131512 299.967182 
L 359.965867 298.772776 
L 361.903558 297.240017 
L 363.970432 295.312879 
L 366.166514 292.954862 
L 368.543397 290.069681 
L 371.152823 286.541267 
L 374.02064 282.27916 
L 377.250134 277.069613 
L 380.996333 270.587644 
L 385.543476 262.254303 
L 392.079953 249.761921 
L 398.487273 237.403767 
L 398.487273 237.403767 
" style="fill:none;stroke:#000000;stroke-linecap:square;stroke-width:1.5;"/>
   </g>
   <g id="line2d_24">
    <path clip-path="url(#pf177800d0e)" d="M 73.832727 210.075911 
L 76.62301 206.168798 
L 79.180769 202.958802 
L 81.557676 200.323098 
L 83.779568 198.183344 
L 85.87228 196.470499 
L 87.861649 195.126478 
L 89.747672 194.117069 
L 91.556189 193.397677 
L 93.313032 192.936391 
L 95.018206 192.7155 
L 96.723378 192.719687 
L 98.428552 192.949331 
L 100.133724 193.403548 
L 101.890571 194.10412 
L 103.699083 195.067914 
L 105.585109 196.329138 
L 107.574478 197.93399 
L 109.667189 199.914008 
L 111.889083 202.32673 
L 114.291824 205.272173 
L 116.901257 208.834261 
L 119.743212 213.099255 
L 122.921031 218.280662 
L 126.563898 224.660904 
L 130.981846 232.870006 
L 137.492507 245.495664 
L 146.483419 262.869548 
L 150.978875 271.05707 
L 154.673413 277.337666 
L 157.902907 282.401823 
L 160.822367 286.575077 
L 163.483474 290.000115 
L 165.93789 292.806985 
L 168.237289 295.106473 
L 170.381672 296.945855 
L 172.422712 298.410103 
L 174.360409 299.532017 
L 176.220598 300.356158 
L 178.003279 300.908391 
L 179.760132 301.221518 
L 181.491126 301.303289 
L 183.196298 301.162559 
L 184.927317 300.794883 
L 186.684157 300.191071 
L 188.492678 299.329032 
L 190.352867 298.191666 
L 192.290558 296.742364 
L 194.331598 294.932299 
L 196.475975 292.729228 
L 198.77538 290.040699 
L 201.22979 286.822042 
L 203.890897 282.958476 
L 206.810357 278.319846 
L 210.091519 272.677791 
L 213.915246 265.643837 
L 218.798231 256.164452 
L 234.222309 225.87184 
L 238.123538 218.897876 
L 241.482202 213.336926 
L 244.479177 208.793496 
L 247.217786 205.037547 
L 249.723876 201.967961 
L 252.049103 199.460642 
L 254.24516 197.413948 
L 256.312046 195.788006 
L 258.249738 194.539371 
L 260.109927 193.599898 
L 261.892601 192.943768 
L 263.623608 192.539477 
L 265.328792 192.368152 
L 267.00813 192.420892 
L 268.71329 192.699428 
L 270.418463 193.203515 
L 272.175315 193.956193 
L 273.983824 194.974057 
L 275.895694 196.311607 
L 277.885053 197.979316 
L 280.003608 200.051543 
L 282.251345 202.566073 
L 284.679921 205.623533 
L 287.315169 209.30708 
L 290.208807 213.742809 
L 293.464147 219.153613 
L 297.210347 225.827835 
L 301.835004 234.546676 
L 309.482433 249.52569 
L 316.664824 263.411532 
L 321.108606 271.525372 
L 324.777316 277.774483 
L 327.980963 282.806253 
L 330.874602 286.948923 
L 333.535696 290.377961 
L 335.990119 293.185537 
L 338.26369 295.459066 
L 340.408054 297.297864 
L 342.449106 298.759611 
L 344.386797 299.877351 
L 346.246974 300.695849 
L 348.029661 301.241192 
L 349.786526 301.546119 
L 351.491698 301.619063 
L 353.196846 301.471142 
L 354.927865 301.094921 
L 356.684705 300.481188 
L 358.467392 299.621862 
L 360.327593 298.474919 
L 362.26526 297.014277 
L 364.306312 295.190777 
L 366.450676 292.972101 
L 368.750094 290.265225 
L 371.204491 287.025388 
L 373.865611 283.137168 
L 376.810917 278.42683 
L 380.092055 272.747733 
L 383.94164 265.620795 
L 388.850484 256.032258 
L 398.487273 236.71741 
L 398.487273 236.71741 
" style="fill:none;stroke:#0000ff;stroke-dasharray:5.55,2.4;stroke-dashoffset:0;stroke-width:1.5;"/>
   </g>
   <g id="patch_8">
    <path d="M 57.6 307.584 
L 57.6 186.624 
" style="fill:none;stroke:#000000;stroke-linecap:square;stroke-linejoin:miter;stroke-width:0.8;"/>
   </g>
   <g id="patch_9">
    <path d="M 414.72 307.584 
L 414.72 186.624 
" style="fill:none;stroke:#000000;stroke-linecap:square;stroke-linejoin:miter;stroke-width:0.8;"/>
   </g>
   <g id="patch_10">
    <path d="M 57.6 307.584 
L 414.72 307.584 
" style="fill:none;stroke:#000000;stroke-linecap:square;stroke-linejoin:miter;stroke-width:0.8;"/>
   </g>
   <g id="patch_11">
    <path d="M 57.6 186.624 
L 414.72 186.624 
" style="fill:none;stroke:#000000;stroke-linecap:square;stroke-linejoin:miter;stroke-width:0.8;"/>
   </g>
   <g id="legend_1">
    <g id="patch_12">
     <path d="M 352.984063 223.98025 
L 407.72 223.98025 
Q 409.72 223.98025 409.72 221.98025 
L 409.72 193.624 
Q 409.72 191.624 407.72 191.624 
L 352.984063 191.624 
Q 350.984063 191.624 350.984063 193.624 
L 350.984063 221.98025 
Q 350.984063 223.98025 352.984063 223.98025 
z
" style="fill:#ffffff;opacity:0.8;stroke:#cccccc;stroke-linejoin:miter;"/>
    </g>
    <g id="line2d_25">
     <path d="M 354.984063 199.722437 
L 374.984063 199.722437 
" style="fill:none;stroke:#000000;stroke-linecap:square;stroke-width:1.5;"/>
    </g>
    <g id="line2d_26"/>
    <g id="text_17">
     <!-- true -->
     <g transform="translate(382.984063 203.222437)scale(0.1 -0.1)">
      <defs>
       <path d="M 2631 2963 
Q 2534 3019 2420 3045 
Q 2306 3072 2169 3072 
Q 1681 3072 1420 2755 
Q 1159 2438 1159 1844 
L 1159 0 
L 581 0 
L 581 3500 
L 1159 3500 
L 1159 2956 
Q 1341 3275 1631 3429 
Q 1922 3584 2338 3584 
Q 2397 3584 2469 3576 
Q 2541 3569 2628 3553 
L 2631 2963 
z
" id="DejaVuSans-72" transform="scale(0.015625)"/>
       <path d="M 544 1381 
L 544 3500 
L 1119 3500 
L 1119 1403 
Q 1119 906 1312 657 
Q 1506 409 1894 409 
Q 2359 409 2629 706 
Q 2900 1003 2900 1516 
L 2900 3500 
L 3475 3500 
L 3475 0 
L 2900 0 
L 2900 538 
Q 2691 219 2414 64 
Q 2138 -91 1772 -91 
Q 1169 -91 856 284 
Q 544 659 544 1381 
z
M 1991 3584 
L 1991 3584 
z
" id="DejaVuSans-75" transform="scale(0.015625)"/>
       <path d="M 3597 1894 
L 3597 1613 
L 953 1613 
Q 991 1019 1311 708 
Q 1631 397 2203 397 
Q 2534 397 2845 478 
Q 3156 559 3463 722 
L 3463 178 
Q 3153 47 2828 -22 
Q 2503 -91 2169 -91 
Q 1331 -91 842 396 
Q 353 884 353 1716 
Q 353 2575 817 3079 
Q 1281 3584 2069 3584 
Q 2775 3584 3186 3129 
Q 3597 2675 3597 1894 
z
M 3022 2063 
Q 3016 2534 2758 2815 
Q 2500 3097 2075 3097 
Q 1594 3097 1305 2825 
Q 1016 2553 972 2059 
L 3022 2063 
z
" id="DejaVuSans-65" transform="scale(0.015625)"/>
      </defs>
      <use xlink:href="#DejaVuSans-74"/>
      <use x="39.208984" xlink:href="#DejaVuSans-72"/>
      <use x="80.322266" xlink:href="#DejaVuSans-75"/>
      <use x="143.701172" xlink:href="#DejaVuSans-65"/>
     </g>
    </g>
    <g id="line2d_27">
     <path d="M 354.984063 214.400562 
L 374.984063 214.400562 
" style="fill:none;stroke:#0000ff;stroke-dasharray:5.55,2.4;stroke-dashoffset:0;stroke-width:1.5;"/>
    </g>
    <g id="line2d_28"/>
    <g id="text_18">
     <!-- pred -->
     <g transform="translate(382.984063 217.900562)scale(0.1 -0.1)">
      <defs>
       <path d="M 1159 525 
L 1159 -1331 
L 581 -1331 
L 581 3500 
L 1159 3500 
L 1159 2969 
Q 1341 3281 1617 3432 
Q 1894 3584 2278 3584 
Q 2916 3584 3314 3078 
Q 3713 2572 3713 1747 
Q 3713 922 3314 415 
Q 2916 -91 2278 -91 
Q 1894 -91 1617 61 
Q 1341 213 1159 525 
z
M 3116 1747 
Q 3116 2381 2855 2742 
Q 2594 3103 2138 3103 
Q 1681 3103 1420 2742 
Q 1159 2381 1159 1747 
Q 1159 1113 1420 752 
Q 1681 391 2138 391 
Q 2594 391 2855 752 
Q 3116 1113 3116 1747 
z
" id="DejaVuSans-70" transform="scale(0.015625)"/>
       <path d="M 2906 2969 
L 2906 4863 
L 3481 4863 
L 3481 0 
L 2906 0 
L 2906 525 
Q 2725 213 2448 61 
Q 2172 -91 1784 -91 
Q 1150 -91 751 415 
Q 353 922 353 1747 
Q 353 2572 751 3078 
Q 1150 3584 1784 3584 
Q 2172 3584 2448 3432 
Q 2725 3281 2906 2969 
z
M 947 1747 
Q 947 1113 1208 752 
Q 1469 391 1925 391 
Q 2381 391 2643 752 
Q 2906 1113 2906 1747 
Q 2906 2381 2643 2742 
Q 2381 3103 1925 3103 
Q 1469 3103 1208 2742 
Q 947 2381 947 1747 
z
" id="DejaVuSans-64" transform="scale(0.015625)"/>
      </defs>
      <use xlink:href="#DejaVuSans-70"/>
      <use x="63.476562" xlink:href="#DejaVuSans-72"/>
      <use x="102.339844" xlink:href="#DejaVuSans-65"/>
      <use x="163.863281" xlink:href="#DejaVuSans-64"/>
     </g>
    </g>
   </g>
  </g>
 </g>
 <defs>
  <clipPath id="p24b09aa7a2">
   <rect height="120.96" width="357.12" x="57.6" y="41.472"/>
  </clipPath>
  <clipPath id="pf177800d0e">
   <rect height="120.96" width="357.12" x="57.6" y="186.624"/>
  </clipPath>
 </defs>
</svg>
